<?xml version="1.0" encoding="iso-8859-1"?>
<!-- Generator: Adobe Illustrator 19.0.0, SVG Export Plug-In . SVG Version: 6.00 Build 0)  -->
<svg version="1.1" id="Capa_1" xmlns="http://www.w3.org/2000/svg" xmlns:xlink="http://www.w3.org/1999/xlink" x="0px" y="0px"
	 viewBox="0 0 512 512" style="enable-background:new 0 0 512 512;" xml:space="preserve">
<path style="fill:#FFD15C;" d="M262.933,35.2h-13.867l-188.8,382.933c130.133,84.267,260.267,84.267,390.4,0L262.933,35.2z"/>
<polygon style="fill:#344A5E;" points="211.733,183.467 234.133,195.2 229.867,170.667 248,153.6 223.467,149.333 211.733,126.933 
	201.067,149.333 191.467,151.467 186.133,162.133 194.667,170.667 190.4,195.2 "/>
<polygon style="fill:#FFFFFF;" points="289.6,198.4 307.733,189.867 324.8,198.4 321.6,179.2 329.067,171.733 325.867,164.267 
	316.267,162.133 307.733,145.067 299.2,162.133 278.933,165.333 293.867,179.2 "/>
<path style="fill:#F3F3F3;" d="M255.467,512c-72.533,0-145.067-13.867-213.333-42.667c-14.933-6.4-22.4-24.533-16-39.467
	c6.4-16,24.533-22.4,39.467-16c122.667,51.2,258.133,51.2,380.8,0c14.933-6.4,33.067,1.067,39.467,16
	c6.4,14.933-1.067,33.067-16,39.467C400.533,498.133,328,512,255.467,512z"/>
<path style="fill:#344A5E;" d="M346.133,189.867c0,0-3.2,0-9.6-2.133c-6.4-2.133-13.867-6.4-21.333-12.8
	c-7.467-6.4-16-16-22.4-26.667c-3.2-5.333-5.333-13.867-5.333-21.333c1.067-7.467,2.133-12.8,2.133-18.133
	c0-9.6-6.4-19.2-14.933-23.467c-4.267-2.133-10.667-4.267-16-8.533c-5.333-4.267-9.6-9.6-11.733-14.933
	c-5.333-10.667-2.133-22.4,0-27.733c3.2-6.4,6.4-9.6,6.4-9.6l10.667,9.6c0,0-2.133,2.133-3.2,5.333c-2.133,4.267-3.2,9.6,0,17.067
	c1.067,3.2,4.267,6.4,7.467,8.533c3.2,2.133,8.533,4.267,13.867,6.4c12.8,6.4,23.467,20.267,23.467,36.267
	c0,7.467-2.133,13.867-2.133,19.2c0,5.333,1.067,8.533,3.2,13.867c5.333,9.6,12.8,17.067,19.2,23.467
	c6.4,5.333,12.8,8.533,17.067,10.667c4.267,1.067,7.467,2.133,7.467,2.133s-5.333,1.067-11.733,0c-6.4-1.067-12.8-3.2-12.8-3.2
	s4.267,5.333,9.6,9.6C338.667,186.667,346.133,189.867,346.133,189.867z"/>
<path style="fill:#66C6B9;" d="M369.6,123.733c0,0-2.133,0-6.4-1.067c-4.267-1.067-10.667-2.133-18.133-4.267
	s-17.067-5.333-25.6-11.733c-8.533-5.333-17.067-13.867-22.4-24.533c-5.333-9.6-7.467-20.267-10.667-29.867
	c-3.2-9.6-4.267-17.067-7.467-19.2c-3.2-2.133-8.533-2.133-10.667-1.067c-2.133,1.067-3.2,2.133-3.2,2.133l-10.667-9.6
	c0,0,2.133-3.2,8.533-5.333c5.333-2.133,14.933-3.2,24.533,3.2c4.267,3.2,7.467,8.533,9.6,13.867
	c2.133,5.333,2.133,9.6,4.267,13.867c3.2,8.533,5.333,18.133,9.6,26.667c7.467,16,25.6,24.533,39.467,28.8
	c7.467,2.133,12.8,3.2,17.067,4.267c4.267,1.067,6.4,1.067,6.4,1.067S368.533,112,363.2,112c-5.333,1.067-10.667,1.067-10.667,1.067
	s4.267,3.2,9.6,5.333C364.267,120.533,369.6,123.733,369.6,123.733z"/>
<path style="fill:#F3705A;" d="M178.667,133.333c0,0,7.467-3.2,17.067-10.667c5.333-4.267,10.667-9.6,17.067-14.933
	c6.4-5.333,10.667-10.667,11.733-18.133c1.067-7.467,1.067-16,0-24.533c0-8.533,1.067-18.133,3.2-25.6c3.2-7.467,6.4-12.8,9.6-16
	c3.2-3.2,5.333-5.333,5.333-5.333l9.6,10.667c0,0-1.067,1.067-3.2,3.2c-2.133,2.133-5.333,6.4-7.467,11.733
	c-2.133,5.333-3.2,11.733-2.133,20.267c0,7.467,1.067,17.067-1.067,27.733c-1.067,5.333-3.2,10.667-6.4,14.933
	c-3.2,4.267-6.4,7.467-9.6,10.667c-6.4,5.333-11.733,10.667-17.067,16c-10.667,8.533-20.267,12.8-20.267,12.8s4.267-3.2,7.467-7.467
	c3.2-4.267,5.333-8.533,5.333-8.533s-4.267,1.067-9.6,2.133C182.933,133.333,178.667,133.333,178.667,133.333z"/>
<circle style="fill:#F3F3F3;" cx="255.467" cy="30.933" r="30.933"/>
<polygon style="fill:#F3705A;" points="158.4,354.133 168,374.4 190.4,377.6 174.4,393.6 178.667,414.933 158.4,405.333 
	139.2,414.933 142.4,393.6 126.4,377.6 148.8,374.4 "/>
<polygon style="fill:#66C6B9;" points="205.333,225.067 220.267,254.933 254.4,260.267 229.867,283.733 235.2,317.867 
	205.333,301.867 175.467,317.867 180.8,283.733 156.267,260.267 190.4,254.933 "/>
<g>
	<polygon style="fill:#F3705A;" points="302.4,237.867 308.8,249.6 322.667,251.733 312,261.333 315.2,275.2 302.4,268.8 
		289.6,275.2 292.8,261.333 282.133,251.733 296,249.6 	"/>
	<polygon style="fill:#F3705A;" points="266.133,323.2 281.067,354.133 315.2,359.467 290.667,382.933 296,417.067 266.133,401.067 
		235.2,417.067 241.6,382.933 217.067,359.467 251.2,354.133 	"/>
</g>
<polygon style="fill:#66C6B9;" points="371.733,345.6 380.267,362.667 400.533,365.867 386.667,379.733 389.867,400 371.733,390.4 
	354.667,400 357.867,379.733 342.933,365.867 363.2,362.667 "/>
<polygon style="fill:#344A5E;" points="365.333,275.2 369.6,284.8 380.267,285.867 372.8,293.333 374.933,304 365.333,298.667 
	355.733,304 357.867,293.333 350.4,285.867 360,284.8 "/>
<polygon style="fill:#66C6B9;" points="255.467,93.867 260.8,105.6 273.6,107.733 265.067,116.267 267.2,129.067 255.467,122.667 
	243.733,129.067 245.867,116.267 237.333,107.733 250.133,105.6 "/>
<polygon style="fill:#344A5E;" points="125.333,348.8 123.2,331.733 134.933,321.067 117.867,317.867 113.6,309.333 97.6,343.467 
	96.533,348.8 111.467,340.267 "/>
<g>
	<polygon style="fill:#FFFFFF;" points="317.333,308.267 321.6,317.867 331.2,318.933 324.8,326.4 325.867,336 317.333,330.667 
		308.8,336 309.867,326.4 303.467,318.933 313.067,317.867 	"/>
	<polygon style="fill:#FFFFFF;" points="258.667,208 264,217.6 274.667,219.733 267.2,227.2 269.333,237.867 258.667,232.533 
		249.067,237.867 251.2,227.2 242.667,219.733 254.4,217.6 	"/>
	<polygon style="fill:#FFFFFF;" points="202.133,403.2 208.533,416 223.467,418.133 212.8,428.8 214.933,442.667 202.133,436.267 
		189.333,442.667 191.467,428.8 181.867,418.133 195.733,416 	"/>
</g>
<g>
</g>
<g>
</g>
<g>
</g>
<g>
</g>
<g>
</g>
<g>
</g>
<g>
</g>
<g>
</g>
<g>
</g>
<g>
</g>
<g>
</g>
<g>
</g>
<g>
</g>
<g>
</g>
<g>
</g>
</svg>
