<?xml version="1.0" encoding="UTF-8" standalone="no"?> <svg id="Layer_1" data-name="Layer 1" xmlns="http://www.w3.org/2000/svg" viewBox="0 0 128 128"><defs><style>.cls-1{fill:#1d75b8;}.cls-2{fill:#2d3e50;}</style></defs><title>a</title><path class="cls-1" d="M40.747,54.29516H32.11562a6.0033,6.0033,0,0,0-6.00289,6.00291L27.494,83.56657H54.00012l1.38125-23.2685a6.0033,6.0033,0,0,0-6.00289-6.00291Z"/><path class="cls-1" d="M22.60074,84.6a1.94367,1.94367,0,0,0,1.80416-2.07385l-.76116-10.94535a3.24054,3.24054,0,0,0-.10492-.60886,3.05781,3.05781,0,1,0-5.89107,1.642l2.94582,10.56893A1.945,1.945,0,0,0,22.60074,84.6Z"/><path class="cls-1" d="M58.1259,109.30751a9.27213,9.27213,0,0,0-9.14662-7.83168H32.51481a9.27214,9.27214,0,0,0-9.14662,7.83168,3.31723,3.31723,0,1,0,3.065.12982,6.22785,6.22785,0,0,1,6.08163-4.92276h6.71287v4.84818a3.315,3.315,0,1,0,3.03873,0v-4.84818h6.71287a6.22785,6.22785,0,0,1,6.08163,4.92276,3.313,3.313,0,1,0,3.065-.12982Z"/><path class="cls-1" d="M58.53337,87.99347H22.96072a2.89619,2.89619,0,0,0-1.97243,5.01946c.01658.01381.03178.029.04834.04282a13.65983,13.65983,0,0,0,4.30674,2.3053,28.48533,28.48533,0,0,0,9.78614,1.68789H46.36458A28.48533,28.48533,0,0,0,56.15072,95.361a13.65965,13.65965,0,0,0,4.30674-2.3053c.01658-.01381.03176-.029.04834-.04282A2.89619,2.89619,0,0,0,58.53337,87.99347Z"/><path class="cls-1" d="M61.72179,68.84739a3.05781,3.05781,0,0,0-3.76653,2.12454,3.23921,3.23921,0,0,0-.1049.60886l-.76117,10.94535a1.94369,1.94369,0,0,0,3.81133.65671l2.94582-10.56893A3.05781,3.05781,0,0,0,61.72179,68.84739Z"/><path class="cls-1" d="M72.002,48.41279H85.715l-2.42314,6.18792A1.2109,1.2109,0,0,0,84.419,56.25514h17.34323a1.21213,1.21213,0,0,0,1.13187-1.64123l-2.34972-6.20112h13.7221a3.42966,3.42966,0,0,0,3.42828-3.42328v-29.184a3.43223,3.43223,0,0,0-3.42828-3.42841H72.002a3.43223,3.43223,0,0,0-3.42828,3.42841v29.184A3.42966,3.42966,0,0,0,72.002,48.41279Zm.73937-31.415a.34092.34092,0,0,1,.13122-.31074h40.52046a.34253.34253,0,0,1,.134.31074V42.29457H72.74138Z"/><path class="cls-2" d="M18.92721,65.81317a6.15025,6.15025,0,0,1,4.38524.40151L23.008,61.03689H3.11565a2.09888,2.09888,0,0,0-2.09946,2.09946v50.38706c0,.03937.00261.07873.00524.1181v1.98136H8.359V73.63366h6.301l-.04724-.1732A6.21675,6.21675,0,0,1,18.92721,65.81317Z"/><path class="cls-2" d="M124.88435,61.03689H58.49153l-.307,5.17516a6.2058,6.2058,0,0,1,8.69439,7.2484l-.04724.1732h52.80668v41.98922H126.976v-1.98136c.00263-.03937.00786-.07873.00786-.1181V63.13635A2.10056,2.10056,0,0,0,124.88435,61.03689Z"/><path class="cls-2" d="M33.415,32.57113a7.46947,7.46947,0,0,0,14.66409,0l1.14026-5.87738a7.86814,7.86814,0,0,0-7.7951-8.92839H40.06982a7.86812,7.86812,0,0,0-7.79508,8.92839Z"/><path class="cls-2" d="M24.03787,55.99817a9.15916,9.15916,0,0,1,8.07658-4.85236H49.37726a9.16364,9.16364,0,0,1,8.07922,4.85249.21.21,0,0,0,.3956-.10035l-.077-10.544a2.22233,2.22233,0,0,0-1.42763-1.63232l-7.96221-2.8264H33.10906l-7.96221,2.8264a2.22239,2.22239,0,0,0-1.42763,1.63232l-.077,10.54393A.21.21,0,0,0,24.03787,55.99817Z"/></svg>