<?xml version="1.0" encoding="utf-8"?>
<!-- Generator: Adobe Illustrator 18.0.0, SVG Export Plug-In . SVG Version: 6.00 Build 0)  -->
<!DOCTYPE svg PUBLIC "-//W3C//DTD SVG 1.1//EN" "http://www.w3.org/Graphics/SVG/1.1/DTD/svg11.dtd">
<svg version="1.1" id="Layer_1" xmlns="http://www.w3.org/2000/svg" xmlns:xlink="http://www.w3.org/1999/xlink" x="0px" y="0px"
	 viewBox="0 0 252 220.7" enable-background="new 0 0 252 220.7" xml:space="preserve">
<g>
	<g>
		<path fill="none" stroke="#21409A" stroke-width="6.384" stroke-miterlimit="10" d="M114.4,194.3c4,27.2-59.1,28-64.4-13.1
			c-25.9,7.3-43.9-17.8-31.3-39.9C3.7,131,3.9,101,19.6,92c-12-12.8,2.6-48.5,31.5-42.1c-7.9-28.7,34-52.1,63.4-29.2L114.4,194.3z"
			/>
		<path fill="none" stroke="#21409A" stroke-width="6.384" stroke-miterlimit="10" d="M50.3,43.5c2.2,12.7,13.4,22.6,26.2,24.9"/>
		<path fill="none" stroke="#21409A" stroke-width="6.384" stroke-miterlimit="10" d="M76.4,33.9c-3,19,29,27,37.7,14.7"/>
		<path fill="none" stroke="#21409A" stroke-width="6.384" stroke-miterlimit="10" d="M60.5,62c-0.1,6.7-9,15.2-14,17.2"/>
		<path fill="none" stroke="#21409A" stroke-width="6.384" stroke-miterlimit="10" d="M40.7,101c7.9,4,8,15.4,16.6,18
			c8.9,2.7,13.8-7.2,17.4-14.1c5.5-10.4,13.6-14.7,25.4-12.8c3.9,0.6,10.6,3.3,12.8,4.4"/>
		<path fill="none" stroke="#21409A" stroke-width="6.384" stroke-miterlimit="10" d="M31.8,100.3c6.1,7.6,15.9-3.6,9.6-10.2"/>
		<path fill="none" stroke="#21409A" stroke-width="6.384" stroke-miterlimit="10" d="M114.7,139.9c-8.4-8.4-21.4,1.1-24.3,10.1
			c-3.3,10.7,6.8,19.3,3.2,29.7c-2.2,6.3-7.1,9.1-13.4,8"/>
		<path fill="none" stroke="#21409A" stroke-width="6.384" stroke-miterlimit="10" d="M50.3,186.5c-9.8-25.8,38.9-18.5,17.9-57.4"/>
		<path fill="none" stroke="#21409A" stroke-width="6.384" stroke-miterlimit="10" d="M18.3,142.5c3.5-5.7,11.8-6.1,17.9-5.8
			c5.5,0.3,11.7,4.5,14,5.1"/>
	</g>
	<g>
		<path fill="none" stroke="#21409A" stroke-width="6.384" stroke-miterlimit="10" d="M241.4,129.1l0.9-28.1l-17-0.6
			c-1-5.8-2.6-11.5-4.8-16.8l15.6-8.6l-13.5-24.6L206,59.5c-3.6-4.2-7.6-8.1-11.9-11.5l9.9-16.8l-24.2-14.3l-10.2,17.3
			c-5-1.8-10.2-3.2-15.5-4V9.9h-13.9v203.7h13.9v-12.6c5.3-0.9,10.4-2.2,15.3-4l6,11.3l24.8-13.2l-6.3-11.8
			c4.6-3.7,8.9-7.9,12.7-12.4l11.7,7.5l15.1-23.7l-12.6-8c2.2-5.7,3.8-11.7,4.8-18L241.4,129.1z"/>
		<path fill="#5FCCF5" stroke="#21409A" stroke-width="6.384" stroke-miterlimit="10" d="M140.3,50.3v19.4
			c23.2,0.1,41.9,18.9,41.9,42.1c0,23.2-18.7,42-41.9,42.1v19.4c33.9-0.1,61.3-27.6,61.3-61.4C201.6,77.8,174.1,50.3,140.3,50.3z"/>
	</g>
</g>
</svg>
