<?xml version="1.0" encoding="utf-8"?>
<!-- Generator: Adobe Illustrator 23.0.3, SVG Export Plug-In . SVG Version: 6.00 Build 0)  -->
<svg version="1.1" id="people" xmlns="http://www.w3.org/2000/svg" xmlns:xlink="http://www.w3.org/1999/xlink" x="0px" y="0px"
	 viewBox="0 0 32 32" style="enable-background:new 0 0 32 32;" xml:space="preserve">
<style type="text/css">
	.st0{opacity:0.2;fill:#1A2330;}
	.st1{fill:#1A2330;}
	.st2{opacity:0.2;}
</style>
<g id="male_x5F_hipster_x5F_moustache">
	<g class="st2">
		<g>
			<path class="st1" d="M18.7,19.6c-0.2,0-0.3,0-0.5,0c-1.4-0.3-2.9-0.3-4.3,0c-0.1,0-0.3,0-0.5,0c-1.7,0-3.1-1.7-3.6-4.1V18
				c0,2.9,2.7,5.3,6.1,5.3h0c3.4,0,6.1-2.4,6.1-5.3v-1.8C21.5,18.2,20.2,19.6,18.7,19.6z"/>
		</g>
	</g>
	<g>
		<g>
			<path class="st1" d="M18.8,24c0.3-0.4,0.8-0.5,1.3-0.3c0,0,0.1,0,0.1,0c1.4,0.6,2.4,1.6,2.4,2.6c0,1.9-2.9,3.4-6.6,3.4
				s-6.6-1.5-6.6-3.4c0-1.1,1-2.1,2.5-2.7l0,0c0.5-0.2,1-0.1,1.3,0.3l1.4,1.7c0.7,0.9,2.1,0.9,2.9,0L18.8,24z"/>
		</g>
	</g>
	<g>
		<g>
			<path class="st1" d="M16,24.1c-3.7,0-6.6-3-6.6-6.6V14c0-3.7,3-6.6,6.6-6.6s6.6,3,6.6,6.6v3.5C22.6,21.1,19.7,24.1,16,24.1z
				 M16,8.4c-3.1,0-5.6,2.5-5.6,5.6v3.5c0,3.1,2.5,5.6,5.6,5.6s5.6-2.5,5.6-5.6V14C21.6,10.9,19.1,8.4,16,8.4z"/>
		</g>
	</g>
	<g>
		<g>
			<path class="st1" d="M9.6,19c-0.3,0-0.7-0.1-1-0.4c-0.4-0.3-0.7-0.8-0.9-1.3c-0.4-1.2-0.1-2.5,0.8-2.8c0.5-0.2,1.2,0,1.7,0.5
				l-0.7,0.8c-0.2-0.2-0.4-0.3-0.6-0.2c-0.3,0.1-0.4,0.8-0.2,1.4c0.1,0.4,0.3,0.7,0.6,0.8c0.1,0.1,0.3,0.2,0.5,0.1l0.4,1
				C9.9,19,9.7,19,9.6,19z"/>
		</g>
	</g>
	<g>
		<g>
			<path class="st1" d="M22.4,19c-0.2,0-0.3,0-0.4-0.1l0.4-1c0.2,0.1,0.4-0.1,0.5-0.1c0.2-0.2,0.5-0.5,0.6-0.8
				c0.2-0.7,0.1-1.3-0.2-1.4c-0.2-0.1-0.4,0-0.6,0.2L21.9,15c0.5-0.5,1.1-0.7,1.7-0.5c0.9,0.3,1.3,1.6,0.8,2.8
				c-0.2,0.6-0.5,1-0.9,1.3C23.1,18.9,22.8,19,22.4,19z"/>
		</g>
	</g>
	<g>
		<g>
			<path class="st1" d="M20.5,19c-0.8,0.4-1.8,0.2-2.3-0.6l0,0c-0.2-0.4-0.7-0.7-1.2-0.7c-0.4,0-0.7,0.2-1,0.4
				c-0.2-0.3-0.6-0.4-1-0.4c-0.5,0-0.9,0.3-1.2,0.7l0,0c-0.5,0.7-1.5,1-2.3,0.6h0l0.2,0.2c0.9,1.1,2.4,1.5,3.7,1l0,0
				c0.2-0.1,0.4-0.2,0.6-0.4c0.1,0.2,0.3,0.3,0.6,0.4h0c1.3,0.5,2.8,0.1,3.7-1L20.5,19L20.5,19z"/>
		</g>
	</g>
	<g>
		<g>
			<path class="st1" d="M14.2,16.8c-0.2,0-0.4-0.1-0.5-0.3c-0.1-0.1-0.2-0.2-0.4-0.2c-0.2,0-0.3,0.1-0.4,0.2
				c-0.1,0.3-0.5,0.4-0.7,0.2C12,16.6,11.9,16.2,12,16c0.3-0.5,0.8-0.8,1.3-0.8c0.6,0,1.1,0.3,1.3,0.8c0.1,0.3,0,0.6-0.2,0.7
				C14.4,16.8,14.3,16.8,14.2,16.8z"/>
		</g>
	</g>
	<g>
		<g>
			<path class="st1" d="M19.5,16.8c-0.2,0-0.4-0.1-0.5-0.3c-0.1-0.1-0.2-0.2-0.4-0.2s-0.3,0.1-0.4,0.2c-0.1,0.3-0.5,0.4-0.7,0.2
				c-0.3-0.1-0.4-0.5-0.2-0.7c0.3-0.5,0.8-0.8,1.3-0.8c0.6,0,1.1,0.3,1.3,0.8c0.1,0.3,0,0.6-0.2,0.7C19.7,16.8,19.6,16.8,19.5,16.8z
				"/>
		</g>
	</g>
	<path class="st1" d="M10.4,14.3l0.4-1.1c0.7-2,2.6-3.4,4.7-3.5h0v0c0,0.9,0.9,1.6,1.8,1.3h0c1.7,0.1,3.2,1.1,3.9,2.6l0.3,0.7l0.3-2
		l-1.3-2.6l-3.8-1.8L13,8.5l-2.5,3.2l-0.5,2.5H10.4z"/>
</g>
</svg>
