<?xml version="1.0" encoding="utf-8"?>
<!-- Generator: Adobe Illustrator 23.0.3, SVG Export Plug-In . SVG Version: 6.00 Build 0)  -->
<svg version="1.1" id="people" xmlns="http://www.w3.org/2000/svg" xmlns:xlink="http://www.w3.org/1999/xlink" x="0px" y="0px"
	 viewBox="0 0 32 32" style="enable-background:new 0 0 32 32;" xml:space="preserve">
<style type="text/css">
	.st0{opacity:0.2;fill:#1A2330;}
	.st1{fill:#1A2330;}
	.st2{opacity:0.2;}
</style>
<g id="male_x5F_punk">
	<polygon class="st0" points="17.3,12.8 20,10.6 17.8,8.6 16,10.3 	"/>
	<g>
		<g>
			<path class="st1" d="M16,25.3c-3.7,0-6.6-3-6.6-6.7V15c0-3.7,3-6.7,6.6-6.7s6.6,3,6.6,6.7v3.5C22.6,22.3,19.7,25.3,16,25.3z
				 M16,9.4c-3.1,0-5.6,2.5-5.6,5.6v3.5c0,3.1,2.5,5.6,5.6,5.6s5.6-2.5,5.6-5.6V15C21.6,11.9,19.1,9.4,16,9.4z"/>
		</g>
	</g>
	<g>
		<g>
			<path class="st1" d="M9.6,20.1c-0.3,0-0.7-0.1-1-0.4c-0.4-0.3-0.7-0.8-0.9-1.4c-0.2-0.6-0.2-1.1-0.1-1.6c0.1-0.6,0.5-1,1-1.2
				c0.5-0.2,1.2,0,1.7,0.5l-0.7,0.8c-0.2-0.2-0.4-0.3-0.6-0.2c-0.2,0.1-0.3,0.3-0.3,0.4c-0.1,0.3,0,0.7,0.1,1
				c0.1,0.4,0.3,0.7,0.6,0.9C9.3,19,9.5,19.1,9.7,19l0.4,1C9.9,20.1,9.7,20.1,9.6,20.1z"/>
		</g>
	</g>
	<g>
		<g>
			<path class="st1" d="M22.4,20.1c-0.2,0-0.3,0-0.4-0.1l0.4-1c0.2,0.1,0.4-0.1,0.5-0.1c0.2-0.2,0.5-0.5,0.6-0.9
				c0.1-0.4,0.2-0.7,0.1-1c0-0.1-0.1-0.3-0.3-0.4c-0.2-0.1-0.4,0-0.6,0.2l-0.7-0.8c0.5-0.5,1.1-0.7,1.7-0.5c0.5,0.2,0.8,0.6,1,1.2
				c0.1,0.5,0.1,1.1-0.1,1.6s-0.5,1-0.9,1.4C23.1,20,22.8,20.1,22.4,20.1z"/>
		</g>
	</g>
	<g>
		<g>
			<path class="st1" d="M15.6,17.5c0.3-0.3,0.1-0.7-0.3-0.8l-0.7-0.1c-0.1,0-0.3-0.1-0.3-0.3l-0.3-0.7c-0.2-0.3-0.7-0.3-0.8,0
				l-0.3,0.7c-0.1,0.1-0.2,0.2-0.3,0.3l-0.7,0.1c-0.4,0.1-0.5,0.5-0.3,0.8L12,18c0.1,0.1,0.2,0.3,0.1,0.4L12,19.2
				c-0.1,0.4,0.3,0.7,0.7,0.5l0.7-0.3c0.1-0.1,0.3-0.1,0.4,0l0.7,0.3c0.3,0.2,0.7-0.1,0.7-0.5l-0.1-0.7c0-0.1,0-0.3,0.1-0.4
				L15.6,17.5z M14.4,17.9C14.4,17.9,14.4,17.9,14.4,17.9c-0.1,0.4-0.4,0.6-0.8,0.6c-0.6,0.1-1.1-0.4-1-1c0-0.4,0.4-0.8,0.8-0.8
				c0,0,0,0,0,0c0.2,0,0.4,0.2,0.3,0.4c0,0,0,0.1,0,0.2c0,0.1,0.1,0.2,0.3,0.3c0,0,0.1,0,0.1,0C14.3,17.5,14.5,17.7,14.4,17.9z"/>
		</g>
	</g>
	<g>
		<g>
			<path class="st1" d="M19.4,17.5c-0.1,0-0.2-0.1-0.3-0.3c0-0.1,0-0.1,0-0.2c0-0.2-0.1-0.4-0.3-0.4c0,0,0,0,0,0
				c-0.4,0-0.8,0.4-0.8,0.8c-0.1,0.6,0.4,1.1,1,1c0.4,0,0.7-0.3,0.8-0.6c0,0,0,0,0,0C19.8,17.7,19.7,17.5,19.4,17.5
				C19.4,17.5,19.4,17.5,19.4,17.5z"/>
		</g>
	</g>
	<g>
		<g>
			<path class="st1" d="M17.1,21.2c-0.2,0-0.5,0-0.7-0.2c-0.3-0.1-0.4-0.4-0.3-0.7c0.1-0.3,0.4-0.4,0.7-0.3c0.4,0.2,0.9,0,1.1-0.4
				c0.1-0.3,0.4-0.4,0.7-0.3c0.3,0.1,0.4,0.4,0.3,0.7C18.5,20.8,17.8,21.2,17.1,21.2z"/>
		</g>
	</g>
	<g>
		<g>
			<path class="st1" d="M16.1,23c-0.9,0-1.7-0.2-2.5-0.5v2.6c0,0.5,0.4,0.9,0.9,0.9c0.3,0,0.5-0.1,0.7-0.3v0.2
				c0,0.5,0.4,0.9,0.9,0.9c0.5,0,0.9-0.4,0.9-0.9v-0.2c0.2,0.2,0.4,0.3,0.7,0.3c0.5,0,0.9-0.4,0.9-0.9v-2.6
				C17.7,22.8,16.9,23,16.1,23z"/>
		</g>
	</g>
	<g>
		<g>
			<path class="st1" d="M17.5,3h-0.2l-0.4,2.2c0,0.2-0.4,0.2-0.4,0V3h-1.7c-0.5,0-0.9,0.4-0.9,0.9l0,6.9c0,1.2,0.9,2.2,2,2.4
				c1.4,0.2,2.6-0.9,2.6-2.3V3.9C18.4,3.4,18,3,17.5,3z"/>
		</g>
	</g>
	<g>
		<g>
			<path class="st1" d="M16,30.8c-4,0-7.1-1.8-7.1-4c0-1.3,1-2.5,2.8-3.2c0.2-0.1,0.4-0.2,0.6-0.3l0.6,0.9c-0.3,0.2-0.5,0.3-0.8,0.4
				C10.8,25.2,10,26,10,26.8c0,1.4,2.4,2.9,6,2.9s6-1.5,6-2.9c0-0.8-0.8-1.6-2-2.2c-0.3-0.1-0.6-0.3-0.9-0.5l0.6-0.9
				c0.2,0.2,0.4,0.3,0.7,0.4c1.7,0.7,2.7,1.9,2.7,3.2C23.1,29,20,30.8,16,30.8z"/>
		</g>
	</g>
</g>
</svg>
