<?xml version="1.0" encoding="utf-8"?>
<!-- Generator: Adobe Illustrator 23.0.3, SVG Export Plug-In . SVG Version: 6.00 Build 0)  -->
<svg version="1.1" id="people" xmlns="http://www.w3.org/2000/svg" xmlns:xlink="http://www.w3.org/1999/xlink" x="0px" y="0px"
	 viewBox="0 0 32 32" style="enable-background:new 0 0 32 32;" xml:space="preserve">
<style type="text/css">
	.st0{opacity:0.2;fill:#1A2330;}
	.st1{fill:#1A2330;}
	.st2{opacity:0.2;}
</style>
<g id="female_x5F_afro">
	<g>
		<g>
			<path class="st1" d="M15.7,24.6c-3.7,0-6.6-3-6.6-6.6v-3.5c0-3.7,3-6.6,6.6-6.6s6.6,3,6.6,6.6V18C22.3,21.6,19.4,24.6,15.7,24.6z
				 M15.7,8.9c-3.1,0-5.6,2.5-5.6,5.6V18c0,3.1,2.5,5.6,5.6,5.6s5.6-2.5,5.6-5.6v-3.5C21.3,11.4,18.8,8.9,15.7,8.9z"/>
		</g>
	</g>
	<g>
		<g>
			<path class="st1" d="M9.3,19.5c-0.8,0-1.6-0.7-2-1.7c-0.2-0.6-0.2-1.1-0.1-1.6c0.1-0.6,0.5-1,1-1.2c0.5-0.2,1.2,0,1.7,0.5
				l-0.7,0.8C8.9,16,8.7,16,8.5,16c-0.2,0.1-0.3,0.3-0.3,0.4c-0.1,0.3,0,0.7,0.1,1c0.2,0.7,0.8,1.1,1.1,1l0.4,1
				C9.6,19.5,9.4,19.5,9.3,19.5z"/>
		</g>
	</g>
	<g>
		<g>
			<path class="st1" d="M22.1,19.5c-0.2,0-0.3,0-0.5-0.1l0.4-1c0.3,0.1,0.8-0.3,1.1-1c0.1-0.4,0.2-0.7,0.1-1c0-0.1-0.1-0.3-0.3-0.4
				c-0.2-0.1-0.4,0-0.6,0.2l-0.7-0.8c0.5-0.5,1.1-0.7,1.7-0.5c0.5,0.2,0.8,0.6,1,1.2c0.1,0.5,0.1,1.1-0.1,1.6
				C23.7,18.8,22.9,19.5,22.1,19.5z"/>
		</g>
	</g>
	<g>
		<g>
			<path class="st1" d="M20.2,23.6C20.2,23.6,20.2,23.5,20.2,23.6c-0.7-0.3-1.3-0.4-1.9-0.2l0,0c-1.7,0.5-3.5,0.5-5.1,0l0,0
				c-0.6-0.2-1.3-0.2-1.8,0.1l0,0c-1.6,0.7-2.7,1.7-2.7,2.9c0,2,3.2,3.7,7.1,3.7c3.9,0,7.1-1.7,7.1-3.7
				C22.8,25.3,21.8,24.2,20.2,23.6z"/>
		</g>
	</g>
	<g>
		<g>
			<path class="st1" d="M9.7,22.7c-0.2,0-0.4,0-0.6-0.1c-0.6-0.1-1.1-0.5-1.5-1.1c-0.3-0.5-0.4-1.2-0.3-1.8c0.1-0.6,0.5-1.1,1.1-1.5
				c0.3-0.2,0.6-0.1,0.7,0.2c0.2,0.3,0.1,0.6-0.2,0.7c-0.6,0.4-0.8,1.2-0.4,1.8c0.2,0.3,0.5,0.5,0.8,0.6c0.3,0.1,0.7,0,1-0.2
				c0.3-0.2,0.6-0.1,0.7,0.2c0.2,0.3,0.1,0.6-0.2,0.7C10.5,22.6,10.1,22.7,9.7,22.7z"/>
		</g>
	</g>
	<g>
		<g>
			<path class="st1" d="M21.7,22.8c-0.4,0-0.9-0.1-1.2-0.3c-0.3-0.2-0.3-0.5-0.2-0.7c0.2-0.3,0.5-0.3,0.7-0.2
				c0.6,0.4,1.4,0.2,1.8-0.4c0.4-0.6,0.2-1.4-0.4-1.8c-0.3-0.2-0.3-0.5-0.2-0.7c0.2-0.3,0.5-0.3,0.7-0.2c0.5,0.3,0.9,0.8,1.1,1.5
				c0.1,0.6,0,1.2-0.3,1.8c-0.3,0.5-0.8,0.9-1.5,1.1C22.1,22.7,21.9,22.8,21.7,22.8z"/>
		</g>
	</g>
	<g>
		<g>
			<g>
				<path class="st1" d="M13,20c0.3-0.2,0.5-0.4,0.8-0.7c0.1-0.1,0.2-0.1,0.3-0.2c0.1-0.1,0.2-0.1,0.3-0.1c0.2-0.1,0.4,0,0.5,0.1
					c0.1,0.1,0.1,0.1,0.2,0c0.2-0.1,0.4-0.1,0.6,0c0.2,0.1,0.4,0.2,0.5,0.4c0.2,0.3,0.4,0.5,0.7,0.8c0,0,0,0,0,0
					c-0.1,0.1-0.2,0.2-0.4,0.3c-0.1,0.1-0.3,0.2-0.4,0.3c-0.8,0.6-1.8,0.5-2.5-0.3C13.4,20.5,13.2,20.3,13,20C13,20,13,20,13,20z"/>
			</g>
		</g>
	</g>
	<g>
		<g>
			<circle class="st1" cx="12.4" cy="20.7" r="0.2"/>
		</g>
	</g>
	<g>
		<g>
			<path class="st1" d="M13.8,17.7c-0.2,0-0.4-0.1-0.5-0.3c-0.1-0.1-0.2-0.2-0.4-0.2c-0.2,0-0.3,0.1-0.4,0.2
				c-0.1,0.3-0.5,0.4-0.7,0.2c-0.3-0.1-0.4-0.5-0.2-0.7c0.3-0.5,0.8-0.8,1.3-0.8c0.6,0,1.1,0.3,1.3,0.8c0.1,0.3,0,0.6-0.2,0.7
				C14,17.7,13.9,17.7,13.8,17.7z"/>
		</g>
	</g>
	<g>
		<g>
			<path class="st1" d="M26.1,12.5c0-0.6-0.3-1.2-0.8-1.5c0.4-0.4,0.5-1.1,0.3-1.7c-0.2-0.6-0.7-1-1.2-1.1c0.2-0.5,0.2-1.2-0.2-1.7
				c-0.4-0.5-1-0.7-1.5-0.7c0-0.6-0.2-1.2-0.7-1.5c-0.5-0.4-1.1-0.4-1.7-0.2c-0.1-0.6-0.5-1-1.1-1.2c-0.6-0.2-1.2,0-1.7,0.3
				c-0.3-0.5-0.8-0.8-1.5-0.8c-0.6,0-1.2,0.3-1.5,0.8c-0.4-0.4-1.1-0.5-1.7-0.3c-0.6,0.2-1,0.7-1.1,1.2c-0.5-0.2-1.2-0.2-1.7,0.2
				c-0.5,0.4-0.7,1-0.7,1.5c-0.6,0-1.2,0.2-1.5,0.7c-0.2,0.3-0.3,0.6-0.3,1C7.4,7.8,7.3,8.1,7.3,8.4c-0.4,0.2-0.8,0.6-0.9,1
				c-0.2,0.6,0,1.2,0.3,1.7c-0.5,0.3-0.8,0.8-0.8,1.5c0,0.6,0.3,1.2,0.8,1.5c-0.4,0.4-0.5,1.1-0.3,1.7c0.2,0.6,0.7,1,1.2,1.1
				c-0.2,0.5-0.2,1.2,0.2,1.7c0.1,0.2,0.3,0.3,0.5,0.5l0,0h0c0,0,0,0,0,0v0H9c0.2-1.1,0.5-2.4,1-3.7c0.2-0.6,0.5-1.2,0.7-1.8
				c0.2-0.1,0.5-0.3,0.7-0.5c0.1,0.4,0.4,0.8,0.7,1c0.5,0.3,1.1,0.4,1.6,0.2c0.1,0.1,0.2,0.2,0.3,0.3c0.3,0.2,0.5,0.3,0.8,0.3
				c0.1,0.2,0.3,0.5,0.6,0.6c0.1,0.1,0.2,0.1,0.4,0.2c0,0.6,0.3,1.1,0.8,1.4c0.4,0.3,0.8,0.4,1.2,0.3c-0.4,0.8-0.2,1.9,0.6,2.4
				c0.7,0.4,1.5,0.4,2.1,0c0,0,0.1,0.1,0.1,0.1c0.8,0.5,1.9,0.4,2.5-0.3c0.5,0,1.1-0.3,1.4-0.8c0.4-0.6,0.4-1.4,0.1-2
				c0.5-0.2,0.9-0.6,1-1.1c0.2-0.6,0-1.2-0.3-1.7C25.8,13.7,26.1,13.1,26.1,12.5z"/>
		</g>
	</g>
</g>
</svg>
