<?xml version="1.0" encoding="utf-8"?>
<!-- Generator: Adobe Illustrator 23.0.3, SVG Export Plug-In . SVG Version: 6.00 Build 0)  -->
<svg version="1.1" id="people" xmlns="http://www.w3.org/2000/svg" xmlns:xlink="http://www.w3.org/1999/xlink" x="0px" y="0px"
	 viewBox="0 0 32 32" style="enable-background:new 0 0 32 32;" xml:space="preserve">
<style type="text/css">
	.st0{opacity:0.2;fill:#1A2330;}
	.st1{fill:#1A2330;}
	.st2{opacity:0.2;}
</style>
<g id="female_x5F_bald">
	<g>
		<g>
			<path class="st1" d="M16,24.6c-3.7,0-6.6-3-6.6-6.6v-3.5c0-3.7,3-6.6,6.6-6.6s6.6,3,6.6,6.6V18C22.6,21.6,19.7,24.6,16,24.6z
				 M16,8.9c-3.1,0-5.6,2.5-5.6,5.6V18c0,3.1,2.5,5.6,5.6,5.6s5.6-2.5,5.6-5.6v-3.5C21.6,11.4,19.1,8.9,16,8.9z"/>
		</g>
	</g>
	<g>
		<g>
			<path class="st1" d="M9.6,19.5c-0.8,0-1.6-0.7-2-1.7c-0.2-0.6-0.2-1.1-0.1-1.6c0.1-0.6,0.5-1,1-1.2c0.5-0.2,1.2,0,1.7,0.5
				l-0.7,0.8C9.2,16,9,16,8.8,16c-0.2,0.1-0.3,0.3-0.3,0.4c-0.1,0.3,0,0.7,0.1,1c0.2,0.7,0.8,1.1,1.1,1l0.4,1
				C9.9,19.5,9.7,19.5,9.6,19.5z"/>
		</g>
	</g>
	<g>
		<g>
			<path class="st1" d="M22.4,19.5c-0.2,0-0.3,0-0.5-0.1l0.4-1c0.3,0.1,0.8-0.3,1.1-1c0.1-0.4,0.2-0.7,0.1-1c0-0.1-0.1-0.3-0.3-0.4
				c-0.2-0.1-0.4,0-0.6,0.2l-0.7-0.8c0.5-0.5,1.1-0.7,1.7-0.5c0.5,0.2,0.8,0.6,1,1.2c0.1,0.5,0.1,1.1-0.1,1.6
				C24,18.8,23.2,19.5,22.4,19.5z"/>
		</g>
	</g>
	<g>
		<g>
			<path class="st1" d="M20.5,23.6C20.5,23.6,20.5,23.5,20.5,23.6c-0.7-0.3-1.3-0.4-1.9-0.2l0,0c-1.7,0.5-3.5,0.5-5.1,0l0,0
				c-0.6-0.2-1.3-0.2-1.8,0.1l0,0c-1.6,0.7-2.7,1.7-2.7,2.9c0,2,3.2,3.7,7.1,3.7c3.9,0,7.1-1.7,7.1-3.7
				C23.1,25.3,22.1,24.2,20.5,23.6z"/>
		</g>
	</g>
	<g>
		<g>
			<path class="st1" d="M9.7,21.5c-0.5,0-1-0.3-1.3-0.8C7.9,20,8.1,19,8.9,18.6c0.3-0.2,0.6-0.1,0.7,0.2c0.2,0.3,0.1,0.6-0.2,0.7
				c-0.2,0.1-0.3,0.5-0.2,0.7c0.1,0.2,0.5,0.3,0.7,0.2c0.3-0.2,0.6-0.1,0.7,0.2c0.2,0.3,0.1,0.6-0.2,0.7C10.3,21.4,10,21.5,9.7,21.5
				z"/>
		</g>
	</g>
	<g>
		<g>
			<path class="st1" d="M22.3,21.5c-0.3,0-0.6-0.1-0.8-0.2c-0.3-0.2-0.3-0.5-0.2-0.7c0.2-0.3,0.5-0.3,0.7-0.2
				c0.2,0.1,0.5,0.1,0.7-0.2c0.1-0.2,0.1-0.5-0.2-0.7c-0.3-0.2-0.3-0.5-0.2-0.7c0.2-0.3,0.5-0.3,0.7-0.2c0.7,0.5,1,1.4,0.5,2.2
				C23.4,21.2,22.8,21.5,22.3,21.5z"/>
		</g>
	</g>
	<g>
		<g>
			<path class="st1" d="M20.4,15.9h-8.8c-0.4,0-0.8,0.4-0.7,0.8l0.1,1.8c0,0.4,0.3,0.7,0.7,0.7h1.6c0.9,0,1.6-0.6,1.7-1.5
				c0.1-0.4,0.5-0.8,0.9-0.8c0.5,0,0.8,0.3,0.9,0.8c0.1,0.8,0.9,1.5,1.7,1.5h1.6c0.4,0,0.7-0.3,0.7-0.7l0.1-1.8
				C21.1,16.2,20.8,15.9,20.4,15.9z M13.2,16.6c-0.5,0.1-0.9,0.6-0.8,1.1v0c0,0.3-0.2,0.5-0.5,0.5c-0.2,0-0.4-0.2-0.5-0.4l0-0.1
				c0-0.6,0.4-1.1,1-1.1h1L13.2,16.6z M19.4,16.6c-0.5,0.1-0.9,0.6-0.8,1.1v0c0,0.3-0.2,0.5-0.5,0.5c-0.2,0-0.4-0.2-0.5-0.4l0-0.1
				c0-0.6,0.4-1.1,1-1.1h1L19.4,16.6z"/>
		</g>
	</g>
	<g>
		<g>
			<g>
				<path class="st1" d="M14,20.3c0.3-0.3,0.5-0.5,0.7-0.7c0.1-0.1,0.2-0.2,0.3-0.2c0.1-0.1,0.2-0.1,0.3-0.2c0.2-0.1,0.4,0,0.6,0.1
					c0.1,0.1,0.1,0.1,0.2,0c0.2-0.1,0.4-0.2,0.6-0.1c0.2,0.1,0.4,0.2,0.5,0.4c0.2,0.2,0.5,0.5,0.7,0.7c0,0,0,0,0,0
					c-0.1,0.1-0.2,0.2-0.3,0.3c-0.1,0.1-0.3,0.3-0.4,0.4c-0.7,0.7-1.8,0.7-2.5,0C14.5,20.8,14.3,20.5,14,20.3
					C14.1,20.3,14.1,20.3,14,20.3z"/>
			</g>
		</g>
	</g>
	<path class="st0" d="M10.4,14.6l0.4-1.1c0.7-2,2.6-3.4,4.7-3.5h0v0c0,0.9,0.9,1.6,1.8,1.3h0c1.7,0.1,3.2,1.1,3.9,2.6l0.3,0.7l0.3-2
		l-1.3-2.6l-3.8-1.8L13,8.8L10.4,12l-0.5,2.5H10.4z"/>
</g>
</svg>
