<?xml version="1.0" encoding="utf-8"?>
<!-- Generator: Adobe Illustrator 23.0.3, SVG Export Plug-In . SVG Version: 6.00 Build 0)  -->
<svg version="1.1" id="people" xmlns="http://www.w3.org/2000/svg" xmlns:xlink="http://www.w3.org/1999/xlink" x="0px" y="0px"
	 viewBox="0 0 32 32" style="enable-background:new 0 0 32 32;" xml:space="preserve">
<style type="text/css">
	.st0{opacity:0.2;fill:#1A2330;}
	.st1{fill:#1A2330;}
	.st2{opacity:0.2;}
</style>
<g id="male_x5F_party">
	<g class="st2">
		<g>
			<path class="st1" d="M18.7,19.6c-0.2,0-0.3,0-0.5,0c-1.4-0.3-2.9-0.3-4.3,0c-0.1,0-0.3,0-0.5,0c-1.7,0-3.1-2-3.6-4.7v2.8
				c0,3.4,2.7,6.1,6.1,6.1h0c3.4,0,6.1-2.7,6.1-6.1v-2.1C21.5,18,20.2,19.6,18.7,19.6z"/>
		</g>
	</g>
	<g>
		<g>
			<path class="st1" d="M16,24.4c-3.7,0-6.6-3-6.6-6.6v-3.5c0-3.7,3-6.6,6.6-6.6s6.6,3,6.6,6.6v3.5C22.6,21.4,19.7,24.4,16,24.4z
				 M16,8.7c-3.1,0-5.6,2.5-5.6,5.6v3.5c0,3.1,2.5,5.6,5.6,5.6s5.6-2.5,5.6-5.6v-3.5C21.6,11.2,19.1,8.7,16,8.7z"/>
		</g>
	</g>
	<g>
		<g>
			<path class="st1" d="M9.6,19.3c-0.8,0-1.6-0.7-2-1.7C7.4,17,7.4,16.5,7.5,16c0.1-0.6,0.5-1,1-1.2c0.5-0.2,1.2,0,1.7,0.5L9.4,16
				c-0.2-0.2-0.4-0.3-0.6-0.2c-0.2,0.1-0.3,0.3-0.3,0.4c-0.1,0.3,0,0.7,0.1,1c0.2,0.7,0.8,1.1,1.1,1l0.4,1
				C9.9,19.3,9.7,19.3,9.6,19.3z"/>
		</g>
	</g>
	<g>
		<g>
			<path class="st1" d="M22.4,19.3c-0.2,0-0.3,0-0.5-0.1l0.4-1c0.3,0.1,0.8-0.3,1.1-1c0.2-0.7,0.1-1.3-0.2-1.4
				c-0.2-0.1-0.4,0-0.6,0.2l-0.7-0.8c0.5-0.5,1.1-0.7,1.7-0.5c0.9,0.3,1.3,1.6,0.8,2.8C24,18.6,23.2,19.3,22.4,19.3z"/>
		</g>
	</g>
	<g>
		<g>
			<path class="st1" d="M18.8,24.3c0.3-0.4,0.8-0.5,1.3-0.3c0,0,0.1,0,0.1,0c1.4,0.6,2.4,1.6,2.4,2.6c0,1.9-2.9,3.4-6.6,3.4
				s-6.6-1.5-6.6-3.4c0-1.1,1-2.1,2.5-2.7l0,0c0.5-0.2,1-0.1,1.3,0.3l1.4,1.7c0.7,0.9,2.1,0.9,2.9,0L18.8,24.3z"/>
		</g>
	</g>
	<g>
		<g>
			<path class="st1" d="M16.1,17.7c-1.3,0-2.3,0.1-2.3,1.4c0,1.3,1,2.3,2.3,2.3s2.3-1,2.3-2.3C18.4,17.8,17.3,17.7,16.1,17.7z
				 M17.2,19.6H15c-0.3,0-0.6-0.3-0.6-0.6c0-0.3,0.2-0.5,0.4-0.6c0.4-0.1,0.8-0.1,1.2-0.1c0.5,0,0.9,0,1.2,0.1
				c0.3,0.1,0.4,0.3,0.4,0.6C17.8,19.3,17.5,19.6,17.2,19.6z"/>
		</g>
	</g>
	<g>
		<g>
			<path class="st1" d="M20.4,14.4h-8.8c-0.4,0-0.8,0.4-0.7,0.8L11,17c0,0.4,0.3,0.7,0.7,0.7h1.6c0.9,0,1.6-0.6,1.7-1.5
				c0.1-0.4,0.5-0.8,0.9-0.8c0.5,0,0.8,0.3,0.9,0.8c0.1,0.8,0.9,1.5,1.7,1.5h1.6c0.4,0,0.7-0.3,0.7-0.7l0.1-1.8
				C21.1,14.8,20.8,14.4,20.4,14.4z M13.2,15.2c-0.5,0.1-0.9,0.6-0.8,1.1v0c0,0.3-0.2,0.5-0.5,0.5c-0.2,0-0.4-0.2-0.5-0.4l0-0.1
				c0-0.6,0.4-1.1,1-1.1h1L13.2,15.2z M19.4,15.2c-0.5,0.1-0.9,0.6-0.8,1.1v0c0,0.3-0.2,0.5-0.5,0.5c-0.2,0-0.4-0.2-0.5-0.4l0-0.1
				c0-0.6,0.4-1.1,1-1.1h1L19.4,15.2z"/>
		</g>
	</g>
	<path class="st1" d="M22.3,9.1c-0.6-2.1-2.5-4.5-5.2-4.5c-0.6,0-1.2,0.1-1.7,0.4c-0.5,0.2-0.9-0.5-0.4-0.8c0.7-0.4,1.5-0.6,2.3-0.6
		c1.2,0,2.3,0.5,3.2,1.3c-1-1.6-3-2.5-5.1-2c-1.5,0.4-2.8,1.6-3.2,3.2c-0.4,1.4-0.1,2.7,0.6,3.8c0.6,1,1.9,1.8,3.1,1.8
		c1.2,0,1.7-0.8,2.6-0.8v0h0.3c1.5,0,2.8,1.2,2.8,2.8v0c0.1,0.1,0.1,0.2,0.2,0.3C22,13.4,23,11.4,22.3,9.1z"/>
</g>
</svg>
