<?xml version="1.0" encoding="utf-8"?>
<!-- Generator: Adobe Illustrator 23.0.3, SVG Export Plug-In . SVG Version: 6.00 Build 0)  -->
<svg version="1.1" id="people" xmlns="http://www.w3.org/2000/svg" xmlns:xlink="http://www.w3.org/1999/xlink" x="0px" y="0px"
	 viewBox="0 0 32 32" style="enable-background:new 0 0 32 32;" xml:space="preserve">
<style type="text/css">
	.st0{opacity:0.2;fill:#1A2330;}
	.st1{fill:#1A2330;}
	.st2{opacity:0.2;}
</style>
<g id="male_x5F_hipster">
	<g>
		<g>
			<path class="st1" d="M16,30.6c-4,0-7.1-1.7-7.1-4c0-1.3,1-2.4,2.8-3.2c0.2-0.1,0.4-0.2,0.6-0.3l0.6,0.9c-0.3,0.2-0.5,0.3-0.8,0.4
				C10.8,25,10,25.9,10,26.7c0,1.4,2.4,2.9,6,2.9s6-1.5,6-2.9c0-0.8-0.8-1.6-2-2.1c-0.3-0.1-0.6-0.3-0.9-0.5l0.6-0.8
				c0.2,0.2,0.4,0.3,0.7,0.4c1.7,0.7,2.7,1.9,2.7,3.1C23.1,28.9,20,30.6,16,30.6z"/>
		</g>
	</g>
	<g>
		<g>
			<path class="st1" d="M9.6,20.1c-0.8,0-1.6-0.7-2-1.7c-0.2-0.6-0.2-1.1-0.1-1.6c0.1-0.6,0.5-1,1-1.2c0.5-0.2,1.2,0,1.7,0.5
				l-0.7,0.8c-0.2-0.2-0.4-0.3-0.6-0.2c-0.2,0.1-0.3,0.3-0.3,0.4c-0.1,0.3,0,0.7,0.1,1c0.2,0.7,0.8,1.1,1.1,1l0.4,1
				C9.9,20,9.7,20.1,9.6,20.1z"/>
		</g>
	</g>
	<g>
		<g>
			<path class="st1" d="M22.4,20.1c-0.2,0-0.3,0-0.5-0.1l0.4-1c0.3,0.1,0.8-0.3,1.1-1c0.1-0.4,0.2-0.7,0.1-1c0-0.1-0.1-0.3-0.3-0.4
				c-0.2-0.1-0.4,0-0.6,0.2L21.9,16c0.5-0.5,1.1-0.7,1.7-0.5c0.5,0.2,0.8,0.6,1,1.2c0.1,0.5,0.1,1.1-0.1,1.6
				C24,19.4,23.2,20.1,22.4,20.1z"/>
		</g>
	</g>
	<g>
		<g>
			<path class="st1" d="M14,18.6c-0.2,0-0.4-0.1-0.5-0.3c-0.1-0.1-0.2-0.2-0.4-0.2c-0.2,0-0.3,0.1-0.4,0.2c-0.1,0.3-0.5,0.4-0.7,0.2
				c-0.3-0.1-0.4-0.5-0.2-0.7c0.3-0.5,0.8-0.8,1.3-0.8c0.6,0,1.1,0.3,1.3,0.8c0.1,0.3,0,0.6-0.2,0.7C14.2,18.5,14.1,18.6,14,18.6z"
				/>
		</g>
	</g>
	<g>
		<g>
			<path class="st1" d="M20.5,20.5c-0.8,0.4-1.8,0.2-2.3-0.6l0,0c-0.2-0.4-0.7-0.7-1.2-0.7c-0.4,0-0.7,0.2-1,0.4
				c-0.2-0.3-0.6-0.4-1-0.4c-0.5,0-0.9,0.3-1.2,0.7l0,0c-0.5,0.7-1.5,1-2.3,0.6h0l0.2,0.2c0.9,1.1,2.4,1.5,3.7,1l0,0
				c0.2-0.1,0.4-0.2,0.6-0.4c0.1,0.2,0.3,0.3,0.6,0.4h0c1.3,0.5,2.8,0.1,3.7-1L20.5,20.5L20.5,20.5z"/>
		</g>
	</g>
	<g>
		<g>
			<path class="st1" d="M19.4,17.6c-0.1,0-0.2-0.1-0.3-0.3c0-0.1,0-0.1,0-0.2c0-0.2-0.1-0.4-0.3-0.4c0,0,0,0,0,0
				c-0.4,0-0.8,0.4-0.8,0.8c-0.1,0.6,0.4,1.1,1,1c0.4,0,0.7-0.3,0.8-0.6c0,0,0,0,0,0C19.8,17.9,19.6,17.7,19.4,17.6
				C19.4,17.6,19.4,17.6,19.4,17.6z"/>
		</g>
	</g>
	<g>
		<g>
			<path class="st1" d="M9.5,21.8c-0.5,0-1-0.3-1.3-0.8c-0.5-0.7-0.2-1.7,0.5-2.2c0.3-0.2,0.6-0.1,0.7,0.2c0.2,0.3,0.1,0.6-0.2,0.7
				C9,20,8.9,20.3,9.1,20.5c0.1,0.2,0.5,0.3,0.7,0.2c0.3-0.2,0.6-0.1,0.7,0.2c0.2,0.3,0.1,0.6-0.2,0.7C10.1,21.8,9.8,21.8,9.5,21.8z
				"/>
		</g>
	</g>
	<path class="st1" d="M16,8.4c-0.8,0-1.5,0.1-2.2,0.4l0.5,1c0.5-0.2,1.1-0.3,1.7-0.3c3.1,0,5.6,2.5,5.6,5.6v3.5
		c0,3.1-2.5,5.6-5.6,5.6s-5.6-2.5-5.6-5.6V15c0-2.3,1.4-4.2,3.3-5.1l-0.3-1c-2.4,1-4.1,3.4-4.1,6.1v3.5c0,3.7,3,6.6,6.6,6.6
		s6.6-3,6.6-6.6V15C22.6,11.3,19.7,8.4,16,8.4z"/>
	<path class="st1" d="M14.5,4.9h-3.6L11.5,9L9.4,5.3v12h1.1c0-2.1,0.9-4.1,2.5-5.4c0.7-0.6,1-1.5,0.9-2.4l0,0l2.2,3.5h1.7
		c2.2,0,3.9,1.7,3.9,3.9v0l0-0.7l0.2,0.6l0.3,0.5h0.5v-4.2C22.7,8.6,19,4.9,14.5,4.9z"/>
	<path class="st1" d="M19.2,21.5v-0.1c0-0.3-0.3-0.6-0.6-0.6h-0.3c-0.3,0-0.6,0.3-0.6,0.6c0,0,0,0,0,0c0,0.8-0.5,1.5-1.3,1.7
		c-1.2,0.3-2.2-0.6-2.2-1.7c0,0,0,0,0,0c0-0.3-0.3-0.6-0.6-0.6h-0.3c-0.3,0-0.6,0.3-0.6,0.6v0.1l-2.1,0.9c0,0,0,0,2.3,4.4
		c0.4,0.8,0.9,1.5,1.7,1.8l0.5-1.4v1.5c0.2,0,0.4,0.1,0.7,0.1h0.5c1.3,0,2.2-0.9,2.8-2.1c2.3-4.3,2.3-4.3,2.3-4.3L19.2,21.5z"/>
</g>
</svg>
